<svg width="1920" height="1067" viewBox="0 0 1920 1067" fill="none" xmlns="http://www.w3.org/2000/svg">
<rect y="-13" width="1920" height="1080" fill="#181818"/>
<path d="M753.367 919C867.605 919 971.94 867.007 1041.06 781.811C1051.29 769.208 1040.14 750.796 1024.34 753.806C844.645 788.04 679.631 650.217 679.631 468.761C679.631 364.237 735.565 268.12 826.473 216.367C840.486 208.39 836.961 187.137 821.039 184.194C798.716 180.077 776.065 178.003 753.367 178C548.929 178 383 343.728 383 548.5C383 753.012 548.668 919 753.367 919Z" fill="url(#backgroundgradient0)"/>
<path fill-rule="evenodd" clip-rule="evenodd" d="M577.552 782.718C578.094 782.634 578.639 782.552 579.186 782.473C578.683 782.559 578.139 782.64 577.552 782.718Z" fill="url(#backgroundgradient1)"/>
<path fill-rule="evenodd" clip-rule="evenodd" d="M421.146 782.718C420.558 782.64 420.015 782.559 419.511 782.473C420.059 782.552 420.603 782.634 421.146 782.718Z" fill="url(#backgroundgradient2)"/>
<path fill-rule="evenodd" clip-rule="evenodd" d="M421.146 777.582C420.603 777.666 420.059 777.748 419.511 777.827C420.015 777.742 420.558 777.66 421.146 777.582Z" fill="url(#backgroundgradient3)"/>
<path fill-rule="evenodd" clip-rule="evenodd" d="M577.552 777.582C578.139 777.66 578.683 777.742 579.186 777.827C578.639 777.748 578.094 777.666 577.552 777.582Z" fill="url(#backgroundgradient4)"/>
<path d="M579.186 777.827C578.639 777.748 578.094 777.666 577.552 777.582C534.961 770.977 508.426 748.356 501.295 674.764L501.282 674.63C501.109 672.935 500.657 671.981 500.207 671.481C499.887 671.126 499.567 671 499.349 671C499.13 671 498.811 671.126 498.491 671.481C498.041 671.981 497.589 672.935 497.416 674.63L497.403 674.764C490.271 748.356 463.736 770.977 421.146 777.582C420.603 777.666 420.059 777.748 419.511 777.827C415.881 778.442 414.361 779.235 413.881 779.777C413.752 779.922 413.698 780.049 413.698 780.15C413.698 780.251 413.752 780.378 413.881 780.523C414.361 781.065 415.881 781.858 419.511 782.473C420.059 782.552 420.603 782.634 421.146 782.718C463.736 789.323 490.271 811.944 497.403 885.536L497.416 885.67C497.589 887.365 498.041 888.319 498.491 888.819C498.811 889.174 499.13 889.3 499.349 889.3C499.567 889.3 499.887 889.174 500.207 888.819C500.657 888.319 501.109 887.365 501.282 885.67L501.295 885.536C508.426 811.944 534.961 789.323 577.552 782.718C578.094 782.634 578.639 782.552 579.186 782.473C582.817 781.858 584.337 781.065 584.817 780.523C584.946 780.378 585 780.251 585 780.15C585 780.049 584.946 779.922 584.817 779.777C584.337 779.235 582.817 778.442 579.186 777.827Z" fill="url(#backgroundgradient5)"/>
<path fill-rule="evenodd" clip-rule="evenodd" d="M457.101 855.149C457.382 855.108 457.663 855.069 457.946 855.03C457.686 855.072 457.405 855.112 457.101 855.149Z" fill="url(#backgroundgradient6)"/>
<path fill-rule="evenodd" clip-rule="evenodd" d="M376.201 855.149C375.897 855.112 375.616 855.072 375.356 855.03C375.639 855.069 375.921 855.108 376.201 855.149Z" fill="url(#backgroundgradient7)"/>
<path fill-rule="evenodd" clip-rule="evenodd" d="M376.201 852.651C375.921 852.692 375.639 852.731 375.356 852.77C375.616 852.728 375.897 852.688 376.201 852.651Z" fill="url(#backgroundgradient8)"/>
<path fill-rule="evenodd" clip-rule="evenodd" d="M457.101 852.651C457.405 852.688 457.686 852.728 457.946 852.77C457.663 852.731 457.382 852.692 457.101 852.651Z" fill="url(#backgroundgradient9)"/>
<path d="M457.946 852.77C457.663 852.731 457.382 852.692 457.101 852.651C435.071 849.437 421.346 838.433 417.658 802.631L417.651 802.566C417.561 801.741 417.328 801.277 417.095 801.034C416.929 800.861 416.764 800.8 416.651 800.8C416.538 800.8 416.373 800.861 416.207 801.034C415.975 801.277 415.741 801.741 415.651 802.566L415.645 802.631C411.956 838.433 398.231 849.437 376.201 852.651C375.921 852.692 375.639 852.731 375.356 852.77C373.478 853.069 372.692 853.455 372.443 853.719C372.377 853.789 372.349 853.851 372.349 853.9C372.349 853.949 372.377 854.011 372.443 854.081C372.692 854.345 373.478 854.731 375.356 855.03C375.639 855.069 375.921 855.108 376.201 855.149C398.231 858.363 411.956 869.367 415.645 905.169L415.651 905.234C415.741 906.059 415.975 906.523 416.207 906.766C416.373 906.939 416.538 907 416.651 907C416.764 907 416.929 906.939 417.095 906.766C417.328 906.523 417.561 906.059 417.651 905.234L417.658 905.169C421.346 869.367 435.071 858.363 457.101 855.149C457.382 855.108 457.663 855.069 457.946 855.03C459.824 854.731 460.61 854.345 460.859 854.081C460.925 854.011 460.953 853.949 460.953 853.9C460.953 853.851 460.925 853.789 460.859 853.719C460.61 853.455 459.824 853.069 457.946 852.77Z" fill="url(#backgroundgradient10)"/>
<path fill-rule="evenodd" clip-rule="evenodd" d="M415.752 728.369C416.033 728.325 416.315 728.284 416.598 728.243C416.337 728.287 416.056 728.329 415.752 728.369Z" fill="url(#backgroundgradient11)"/>
<path fill-rule="evenodd" clip-rule="evenodd" d="M334.852 728.369C334.549 728.329 334.267 728.287 334.007 728.243C334.29 728.284 334.572 728.325 334.852 728.369Z" fill="url(#backgroundgradient12)"/>
<path fill-rule="evenodd" clip-rule="evenodd" d="M334.852 725.731C334.572 725.775 334.29 725.816 334.007 725.857C334.267 725.813 334.549 725.771 334.852 725.731Z" fill="url(#backgroundgradient13)"/>
<path fill-rule="evenodd" clip-rule="evenodd" d="M415.752 725.731C416.056 725.771 416.337 725.813 416.598 725.857C416.315 725.816 416.033 725.775 415.752 725.731Z" fill="url(#backgroundgradient14)"/>
<path d="M416.598 725.857C416.315 725.816 416.033 725.775 415.752 725.731C393.723 722.339 379.998 710.723 376.309 672.933L376.302 672.864C376.213 671.994 375.979 671.504 375.746 671.247C375.581 671.065 375.415 671 375.302 671C375.189 671 375.024 671.065 374.859 671.247C374.626 671.504 374.392 671.994 374.303 672.864L374.296 672.933C370.607 710.723 356.882 722.339 334.852 725.731C334.572 725.775 334.29 725.816 334.007 725.857C332.129 726.173 331.343 726.58 331.095 726.858C331.028 726.933 331 726.998 331 727.05C331 727.102 331.028 727.167 331.095 727.242C331.343 727.52 332.129 727.927 334.007 728.243C334.29 728.284 334.572 728.325 334.852 728.369C356.882 731.761 370.607 743.377 374.296 781.167L374.303 781.236C374.392 782.106 374.626 782.596 374.859 782.853C375.024 783.035 375.189 783.1 375.302 783.1C375.415 783.1 375.581 783.035 375.746 782.853C375.979 782.596 376.213 782.106 376.302 781.236L376.309 781.167C379.998 743.377 393.723 731.761 415.752 728.369C416.033 728.325 416.315 728.284 416.598 728.243C418.475 727.927 419.262 727.52 419.51 727.242C419.577 727.167 419.605 727.102 419.605 727.05C419.605 726.998 419.577 726.933 419.51 726.858C419.262 726.58 418.475 726.173 416.598 725.857Z" fill="url(#backgroundgradient15)"/>
<defs>
<linearGradient id="backgroundgradient0" x1="383" y1="178" x2="956" y2="827.5" gradientUnits="userSpaceOnUse">
<stop stop-color="#9E00FF" stop-opacity="0.27"/>
<stop offset="1" stop-color="#B844FF" stop-opacity="0"/>
</linearGradient>
<linearGradient id="backgroundgradient1" x1="331" y1="671" x2="506.349" y2="910.448" gradientUnits="userSpaceOnUse">
<stop stop-color="#9E00FF" stop-opacity="0.27"/>
<stop offset="1" stop-color="#B844FF" stop-opacity="0"/>
</linearGradient>
<linearGradient id="backgroundgradient2" x1="331" y1="671" x2="506.349" y2="910.448" gradientUnits="userSpaceOnUse">
<stop stop-color="#9E00FF" stop-opacity="0.27"/>
<stop offset="1" stop-color="#B844FF" stop-opacity="0"/>
</linearGradient>
<linearGradient id="backgroundgradient3" x1="331" y1="671" x2="506.349" y2="910.448" gradientUnits="userSpaceOnUse">
<stop stop-color="#9E00FF" stop-opacity="0.27"/>
<stop offset="1" stop-color="#B844FF" stop-opacity="0"/>
</linearGradient>
<linearGradient id="backgroundgradient4" x1="331" y1="671" x2="506.349" y2="910.448" gradientUnits="userSpaceOnUse">
<stop stop-color="#9E00FF" stop-opacity="0.27"/>
<stop offset="1" stop-color="#B844FF" stop-opacity="0"/>
</linearGradient>
<linearGradient id="backgroundgradient5" x1="331" y1="671" x2="506.349" y2="910.448" gradientUnits="userSpaceOnUse">
<stop stop-color="#9E00FF" stop-opacity="0.27"/>
<stop offset="1" stop-color="#B844FF" stop-opacity="0"/>
</linearGradient>
<linearGradient id="backgroundgradient6" x1="331" y1="671" x2="506.349" y2="910.448" gradientUnits="userSpaceOnUse">
<stop stop-color="#9E00FF" stop-opacity="0.27"/>
<stop offset="1" stop-color="#B844FF" stop-opacity="0"/>
</linearGradient>
<linearGradient id="backgroundgradient7" x1="331" y1="671" x2="506.349" y2="910.448" gradientUnits="userSpaceOnUse">
<stop stop-color="#9E00FF" stop-opacity="0.27"/>
<stop offset="1" stop-color="#B844FF" stop-opacity="0"/>
</linearGradient>
<linearGradient id="backgroundgradient8" x1="331" y1="671" x2="506.349" y2="910.448" gradientUnits="userSpaceOnUse">
<stop stop-color="#9E00FF" stop-opacity="0.27"/>
<stop offset="1" stop-color="#B844FF" stop-opacity="0"/>
</linearGradient>
<linearGradient id="backgroundgradient9" x1="331" y1="671" x2="506.349" y2="910.448" gradientUnits="userSpaceOnUse">
<stop stop-color="#9E00FF" stop-opacity="0.27"/>
<stop offset="1" stop-color="#B844FF" stop-opacity="0"/>
</linearGradient>
<linearGradient id="backgroundgradient10" x1="331" y1="671" x2="506.349" y2="910.448" gradientUnits="userSpaceOnUse">
<stop stop-color="#9E00FF" stop-opacity="0.27"/>
<stop offset="1" stop-color="#B844FF" stop-opacity="0"/>
</linearGradient>
<linearGradient id="backgroundgradient11" x1="331" y1="671" x2="506.349" y2="910.448" gradientUnits="userSpaceOnUse">
<stop stop-color="#9E00FF" stop-opacity="0.27"/>
<stop offset="1" stop-color="#B844FF" stop-opacity="0"/>
</linearGradient>
<linearGradient id="backgroundgradient12" x1="331" y1="671" x2="506.349" y2="910.448" gradientUnits="userSpaceOnUse">
<stop stop-color="#9E00FF" stop-opacity="0.27"/>
<stop offset="1" stop-color="#B844FF" stop-opacity="0"/>
</linearGradient>
<linearGradient id="backgroundgradient13" x1="331" y1="671" x2="506.349" y2="910.448" gradientUnits="userSpaceOnUse">
<stop stop-color="#9E00FF" stop-opacity="0.27"/>
<stop offset="1" stop-color="#B844FF" stop-opacity="0"/>
</linearGradient>
<linearGradient id="backgroundgradient14" x1="331" y1="671" x2="506.349" y2="910.448" gradientUnits="userSpaceOnUse">
<stop stop-color="#9E00FF" stop-opacity="0.27"/>
<stop offset="1" stop-color="#B844FF" stop-opacity="0"/>
</linearGradient>
<linearGradient id="backgroundgradient15" x1="331" y1="671" x2="506.349" y2="910.448" gradientUnits="userSpaceOnUse">
<stop stop-color="#9E00FF" stop-opacity="0.27"/>
<stop offset="1" stop-color="#B844FF" stop-opacity="0"/>
</linearGradient>
</defs>
</svg>
