<svg width="48" height="48" viewBox="0 0 48 48" fill="none" xmlns="http://www.w3.org/2000/svg">
<g clip-path="url(#clip0_40_788)">
<path fill-rule="evenodd" clip-rule="evenodd" d="M0.0525301 30.9199C0.930566 34.2913 12.5879 33.4786 26.0898 29.1045C8.64821 32.1634 4.00522 31.8431 3.47596 29.8109C2.94671 27.7787 4.87538 25.2079 10.3135 21.9605C3.62354 25.2939 -0.519419 28.7238 0.0525301 30.9199Z" fill="#0E0E1A"/>
<path fill-rule="evenodd" clip-rule="evenodd" d="M48.9475 15.0801C48.0694 11.7087 36.4121 12.5214 22.9102 16.8955C40.3518 13.8366 44.9948 14.1569 45.524 16.1891C46.0533 18.2213 44.1246 20.7921 38.6865 24.0395C45.3765 20.7061 49.5194 17.2762 48.9475 15.0801Z" fill="#0E0E1A"/>
<path fill-rule="evenodd" clip-rule="evenodd" d="M27.2632 23.1188C27.2823 23.1155 27.3014 23.1124 27.3206 23.1093C27.3029 23.1126 27.2838 23.1158 27.2632 23.1188Z" fill="#0E0E1A"/>
<path fill-rule="evenodd" clip-rule="evenodd" d="M21.7701 23.1188C21.7495 23.1158 21.7304 23.1126 21.7127 23.1093C21.7319 23.1124 21.7511 23.1155 21.7701 23.1188Z" fill="#0E0E1A"/>
<path fill-rule="evenodd" clip-rule="evenodd" d="M21.7701 22.92C21.7511 22.9233 21.7319 22.9264 21.7127 22.9295C21.7304 22.9262 21.7495 22.923 21.7701 22.92Z" fill="#0E0E1A"/>
<path fill-rule="evenodd" clip-rule="evenodd" d="M27.2632 22.92C27.2838 22.923 27.3029 22.9262 27.3206 22.9295C27.3014 22.9264 27.2823 22.9233 27.2632 22.92Z" fill="#0E0E1A"/>
<path d="M27.3206 22.9295C27.3014 22.9264 27.2823 22.9233 27.2632 22.92C25.7674 22.6644 24.8355 21.7889 24.585 18.9408L24.5845 18.9356C24.5785 18.87 24.5626 18.8331 24.5468 18.8138C24.5356 18.8 24.5243 18.7951 24.5167 18.7951C24.509 18.7951 24.4978 18.8 24.4865 18.8138C24.4707 18.8331 24.4549 18.87 24.4488 18.9356L24.4483 18.9408C24.1979 21.7889 23.2659 22.6644 21.7701 22.92C21.7511 22.9233 21.7319 22.9264 21.7127 22.9295C21.5852 22.9533 21.5318 22.984 21.515 23.005C21.5104 23.0106 21.5085 23.0155 21.5085 23.0194C21.5085 23.0233 21.5104 23.0282 21.515 23.0339C21.5318 23.0548 21.5852 23.0855 21.7127 23.1093C21.7319 23.1124 21.7511 23.1155 21.7701 23.1188C23.2659 23.3744 24.1979 24.2499 24.4483 27.098L24.4488 27.1032C24.4549 27.1688 24.4707 27.2057 24.4865 27.2251C24.4978 27.2388 24.509 27.2437 24.5167 27.2437C24.5243 27.2437 24.5356 27.2388 24.5468 27.2251C24.5626 27.2057 24.5785 27.1688 24.5845 27.1032L24.585 27.098C24.8355 24.2499 25.7674 23.3744 27.2632 23.1188C27.2823 23.1155 27.3014 23.1124 27.3206 23.1093C27.4481 23.0855 27.5015 23.0548 27.5184 23.0339C27.5229 23.0282 27.5248 23.0233 27.5248 23.0194C27.5248 23.0155 27.5229 23.0106 27.5184 23.005C27.5015 22.984 27.4481 22.9533 27.3206 22.9295Z" fill="#0E0E1A"/>
</g>
<defs>
<clipPath id="clip0_40_788">
<rect width="48" height="48" fill="white"/>
</clipPath>
</defs>
</svg>
