<svg width="1920" height="975" viewBox="0 0 1920 975" fill="none" xmlns="http://www.w3.org/2000/svg">
<path fill-rule="evenodd" clip-rule="evenodd" d="M-230.442 873.242C-187.687 1037.48 379.952 997.884 1037.41 784.805C188.115 933.818 -37.9704 918.213 -63.7418 819.216C-89.5133 720.218 4.4012 594.984 269.203 436.791C-56.556 599.176 -258.293 766.259 -230.442 873.242Z" fill="#0C0C17"/>
<path fill-rule="evenodd" clip-rule="evenodd" d="M2150.44 101.615C2107.69 -62.6214 1540.05 -23.027 882.585 190.052C1731.89 41.0387 1957.97 56.6444 1983.74 155.642C2009.51 254.639 1915.6 379.873 1650.8 538.066C1976.56 375.681 2178.29 208.598 2150.44 101.615Z" fill="#0C0C17"/>
<path fill-rule="evenodd" clip-rule="evenodd" d="M1094.55 493.215C1095.48 493.057 1096.41 492.903 1097.35 492.754C1096.49 492.915 1095.56 493.07 1094.55 493.215Z" fill="#0C0C17"/>
<path fill-rule="evenodd" clip-rule="evenodd" d="M827.071 493.215C826.067 493.07 825.137 492.915 824.276 492.754C825.212 492.903 826.144 493.057 827.071 493.215Z" fill="#0C0C17"/>
<path fill-rule="evenodd" clip-rule="evenodd" d="M827.071 483.533C826.144 483.692 825.212 483.846 824.276 483.994C825.137 483.834 826.067 483.679 827.071 483.533Z" fill="#0C0C17"/>
<path fill-rule="evenodd" clip-rule="evenodd" d="M1094.55 483.533C1095.56 483.679 1096.49 483.834 1097.35 483.994C1096.41 483.846 1095.48 483.692 1094.55 483.533Z" fill="#0C0C17"/>
<path d="M1097.35 483.994C1096.41 483.846 1095.48 483.692 1094.55 483.533C1021.71 471.08 976.335 428.433 964.139 289.687L964.117 289.435C963.821 286.239 963.049 284.441 962.279 283.499C961.731 282.829 961.185 282.591 960.811 282.591C960.438 282.591 959.891 282.829 959.344 283.499C958.574 284.441 957.802 286.239 957.506 289.435L957.484 289.687C945.287 428.433 899.908 471.08 827.071 483.533C826.144 483.692 825.212 483.846 824.276 483.994C818.068 485.155 815.468 486.65 814.647 487.671C814.427 487.945 814.334 488.184 814.334 488.374C814.334 488.564 814.427 488.804 814.647 489.078C815.468 490.099 818.068 491.594 824.276 492.754C825.212 492.903 826.144 493.057 827.071 493.215C899.908 505.669 945.287 548.316 957.484 687.062L957.506 687.313C957.802 690.509 958.574 692.308 959.344 693.25C959.891 693.92 960.438 694.158 960.811 694.158C961.185 694.158 961.731 693.92 962.279 693.25C963.049 692.308 963.821 690.509 964.117 687.313L964.139 687.062C976.335 548.316 1021.71 505.669 1094.55 493.215C1095.48 493.057 1096.41 492.903 1097.35 492.754C1103.56 491.594 1106.15 490.099 1106.98 489.078C1107.2 488.804 1107.29 488.564 1107.29 488.374C1107.29 488.184 1107.2 487.945 1106.98 487.671C1106.15 486.65 1103.56 485.155 1097.35 483.994Z" fill="#0C0C17"/>
</svg>
