<svg width="195" height="21" viewBox="0 0 195 21" fill="none" xmlns="http://www.w3.org/2000/svg">
<path d="M3.85308 20.42C2.77041 20.42 1.85574 20.112 1.10908 19.496C0.381078 18.88 0.0170782 17.9933 0.0170782 16.836C0.0170782 15.9587 0.465078 15.156 1.36108 14.428C2.25708 13.6813 3.66641 13.1213 5.58908 12.748C5.88775 12.692 6.22375 12.636 6.59708 12.58C6.97041 12.5053 7.36241 12.4307 7.77308 12.356V10.144C7.77308 8.87467 7.61441 7.988 7.29708 7.484C6.99841 6.96133 6.52241 6.7 5.86908 6.7C5.42108 6.7 5.06641 6.84933 4.80508 7.148C4.54374 7.428 4.37574 7.92267 4.30108 8.632L4.24508 8.94C4.20774 9.74267 4.01174 10.3307 3.65708 10.704C3.30241 11.0773 2.86374 11.264 2.34108 11.264C1.85574 11.264 1.45441 11.1147 1.13708 10.816C0.819745 10.5173 0.661078 10.116 0.661078 9.612C0.661078 8.84667 0.922412 8.20267 1.44508 7.68C1.98641 7.15733 2.69574 6.76533 3.57308 6.504C4.45041 6.24267 5.40241 6.112 6.42908 6.112C8.09041 6.112 9.36908 6.52267 10.2651 7.344C11.1797 8.14667 11.6371 9.46267 11.6371 11.292V17.48C11.6371 18.32 12.0291 18.74 12.8131 18.74H13.4291L13.6811 18.964C13.3264 19.412 12.9344 19.7573 12.5051 20C12.0944 20.2427 11.5064 20.364 10.7411 20.364C9.91975 20.364 9.26641 20.1773 8.78108 19.804C8.31441 19.412 8.00641 18.8987 7.85708 18.264C7.29708 18.8613 6.71841 19.3747 6.12108 19.804C5.54241 20.2147 4.78641 20.42 3.85308 20.42ZM5.56108 18.712C5.93441 18.712 6.27974 18.628 6.59708 18.46C6.93308 18.2733 7.32508 17.9933 7.77308 17.62V12.916C7.58641 12.9533 7.39974 12.9907 7.21308 13.028C7.02641 13.0653 6.81175 13.1027 6.56908 13.14C5.71041 13.364 5.01975 13.7467 4.49708 14.288C3.99308 14.8107 3.74108 15.52 3.74108 16.416C3.74108 17.1813 3.91841 17.76 4.27308 18.152C4.62774 18.5253 5.05708 18.712 5.56108 18.712ZM14.2026 20V19.72L14.5946 19.608C15.2479 19.4213 15.5746 18.964 15.5746 18.236V9.472C15.5746 9.06133 15.5092 8.76267 15.3786 8.576C15.2479 8.37067 14.9959 8.23067 14.6226 8.156L14.2026 8.044V7.764L18.9906 6.14L19.2706 6.42L19.4946 8.1C20.1479 7.52133 20.8852 7.04533 21.7066 6.672C22.5279 6.29867 23.3399 6.112 24.1426 6.112C25.3746 6.112 26.3172 6.448 26.9706 7.12C27.6426 7.792 27.9786 8.81867 27.9786 10.2V18.264C27.9786 18.992 28.3332 19.4493 29.0426 19.636L29.2946 19.72V20H22.6866V19.72L23.0506 19.608C23.7039 19.4027 24.0306 18.9453 24.0306 18.236V9.304C24.0306 8.10933 23.4332 7.512 22.2386 7.512C21.4172 7.512 20.5212 7.92267 19.5506 8.744V18.264C19.5506 18.992 19.8772 19.4493 20.5306 19.636L20.7826 19.72V20H14.2026ZM36.3261 20.42C35.2247 20.42 34.2354 20.1773 33.3581 19.692C32.4807 19.188 31.7807 18.4227 31.2581 17.396C30.7541 16.3507 30.5021 15.016 30.5021 13.392C30.5021 11.7493 30.7914 10.396 31.3701 9.332C31.9487 8.24933 32.7141 7.44667 33.6661 6.924C34.6181 6.38267 35.6541 6.112 36.7741 6.112C37.4274 6.112 38.0527 6.17733 38.6501 6.308C39.2474 6.43867 39.7794 6.63467 40.2461 6.896V3.256C40.2461 2.864 40.1807 2.57467 40.0501 2.388C39.9381 2.20133 39.6861 2.07067 39.2941 1.996L38.7621 1.884V1.604L43.8581 0.371999L44.1661 0.623999L44.0541 4.544V18.236C44.0541 18.6093 44.1194 18.9173 44.2501 19.16C44.3807 19.384 44.6234 19.5427 44.9781 19.636L45.2301 19.72V20L40.4421 20.308L40.1901 19.3C39.6861 19.636 39.1074 19.9067 38.4541 20.112C37.8194 20.3173 37.1101 20.42 36.3261 20.42ZM37.9501 19.384C38.7341 19.384 39.4527 19.1507 40.1061 18.684V7.568C39.4154 7.12 38.7061 6.896 37.9781 6.896C37.0821 6.896 36.3167 7.41867 35.6821 8.464C35.0474 9.49067 34.7301 11.1147 34.7301 13.336C34.7301 15.5573 35.0287 17.1253 35.6261 18.04C36.2234 18.936 36.9981 19.384 37.9501 19.384ZM46.4682 20V19.72L46.8882 19.608C47.2615 19.496 47.5135 19.328 47.6442 19.104C47.7935 18.88 47.8682 18.5907 47.8682 18.236V9.472C47.8682 9.06133 47.7935 8.76267 47.6442 8.576C47.5135 8.37067 47.2615 8.23067 46.8882 8.156L46.4682 8.044V7.764L51.2842 6.14L51.5642 6.42L51.8162 8.828V9.052C52.0775 8.52933 52.4135 8.05333 52.8242 7.624C53.2535 7.176 53.7202 6.812 54.2242 6.532C54.7469 6.252 55.2602 6.112 55.7642 6.112C56.4735 6.112 57.0149 6.308 57.3882 6.7C57.7615 7.092 57.9482 7.58667 57.9482 8.184C57.9482 8.81867 57.7615 9.31333 57.3882 9.668C57.0335 10.004 56.6042 10.172 56.1002 10.172C55.3162 10.172 54.6255 9.78 54.0282 8.996L53.9722 8.94C53.7855 8.67867 53.5709 8.53867 53.3282 8.52C53.0855 8.48267 52.8615 8.59467 52.6562 8.856C52.4695 9.024 52.3109 9.22933 52.1802 9.472C52.0682 9.696 51.9562 9.95733 51.8442 10.256V18.068C51.8442 18.8147 52.1709 19.2813 52.8242 19.468L53.7202 19.72V20H46.4682ZM65.4741 20.42C64.0554 20.42 62.8234 20.1307 61.7781 19.552C60.7327 18.9547 59.9207 18.1147 59.3421 17.032C58.7821 15.9493 58.5021 14.68 58.5021 13.224C58.5021 11.768 58.8007 10.508 59.3981 9.444C60.0141 8.38 60.8447 7.55867 61.8901 6.98C62.9541 6.40133 64.1487 6.112 65.4741 6.112C66.7994 6.112 67.9847 6.40133 69.0301 6.98C70.0754 7.54 70.8967 8.352 71.4941 9.416C72.1101 10.48 72.4181 11.7493 72.4181 13.224C72.4181 14.6987 72.1287 15.9773 71.5501 17.06C70.9901 18.124 70.1874 18.9547 69.1421 19.552C68.1154 20.1307 66.8927 20.42 65.4741 20.42ZM65.4741 19.86C66.1274 19.86 66.6501 19.6733 67.0421 19.3C67.4341 18.9267 67.7141 18.264 67.8821 17.312C68.0687 16.36 68.1621 15.016 68.1621 13.28C68.1621 11.5253 68.0687 10.172 67.8821 9.22C67.7141 8.268 67.4341 7.60533 67.0421 7.232C66.6501 6.85867 66.1274 6.672 65.4741 6.672C64.8207 6.672 64.2887 6.85867 63.8781 7.232C63.4861 7.60533 63.1967 8.268 63.0101 9.22C62.8421 10.172 62.7581 11.5253 62.7581 13.28C62.7581 15.016 62.8421 16.36 63.0101 17.312C63.1967 18.264 63.4861 18.9267 63.8781 19.3C64.2887 19.6733 64.8207 19.86 65.4741 19.86ZM73.6479 20V19.72L74.0399 19.608C74.3946 19.5147 74.6372 19.356 74.7679 19.132C74.9172 18.908 75.0012 18.6093 75.0199 18.236V9.472C75.0199 9.06133 74.9546 8.76267 74.8239 8.576C74.6932 8.37067 74.4412 8.23067 74.0679 8.156L73.6479 8.044V7.764L78.4359 6.14L78.7159 6.42L78.9399 8.324C79.5559 7.708 80.2559 7.18533 81.0399 6.756C81.8426 6.32667 82.6732 6.112 83.5319 6.112C84.4279 6.112 85.1466 6.29867 85.6879 6.672C86.2292 7.02667 86.6399 7.58667 86.9199 8.352C87.6479 7.66133 88.4319 7.12 89.2719 6.728C90.1306 6.31733 90.9612 6.112 91.7639 6.112C93.0892 6.112 94.0599 6.42933 94.6759 7.064C95.3106 7.69867 95.6279 8.69733 95.6279 10.06V18.264C95.6279 18.992 95.9639 19.4493 96.6359 19.636L96.9439 19.72V20H90.4759V19.72L90.7559 19.636C91.1106 19.524 91.3532 19.356 91.4839 19.132C91.6332 18.908 91.7079 18.6093 91.7079 18.236V9.668C91.7079 8.884 91.5679 8.352 91.2879 8.072C91.0079 7.77333 90.5599 7.624 89.9439 7.624C89.4586 7.624 88.9826 7.736 88.5159 7.96C88.0679 8.16533 87.5919 8.48267 87.0879 8.912C87.1812 9.21067 87.2372 9.53733 87.2559 9.892C87.2932 10.2467 87.3119 10.62 87.3119 11.012V18.264C87.3306 18.992 87.6666 19.4493 88.3199 19.636L88.5719 19.72V20H82.0759V19.72L82.4679 19.608C82.8226 19.496 83.0652 19.3373 83.1959 19.132C83.3452 18.908 83.4199 18.6093 83.4199 18.236V9.696C83.4199 8.94933 83.2799 8.41733 82.9999 8.1C82.7386 7.78267 82.2812 7.624 81.6279 7.624C81.1986 7.624 80.7692 7.736 80.3399 7.96C79.9106 8.16533 79.4626 8.47333 78.9959 8.884V18.264C78.9959 18.992 79.3226 19.4493 79.9759 19.636L80.2279 19.72V20H73.6479ZM105.067 6.112C106.28 6.112 107.316 6.364 108.175 6.868C109.033 7.35333 109.687 8.02533 110.135 8.884C110.601 9.724 110.835 10.6853 110.835 11.768C110.835 11.9733 110.825 12.188 110.807 12.412C110.788 12.6173 110.751 12.804 110.695 12.972H102.351C102.369 14.988 102.724 16.444 103.415 17.34C104.124 18.2173 105.169 18.656 106.551 18.656C107.484 18.656 108.24 18.5067 108.819 18.208C109.397 17.9093 109.939 17.4707 110.443 16.892L110.723 17.144C110.144 18.1707 109.369 18.9733 108.399 19.552C107.447 20.1307 106.299 20.42 104.955 20.42C103.629 20.42 102.453 20.14 101.427 19.58C100.4 19.0013 99.5972 18.18 99.0185 17.116C98.4398 16.052 98.1505 14.7827 98.1505 13.308C98.1505 11.7773 98.4865 10.48 99.1585 9.416C99.8305 8.33333 100.689 7.512 101.735 6.952C102.799 6.392 103.909 6.112 105.067 6.112ZM104.983 6.672C104.441 6.672 103.975 6.84 103.583 7.176C103.209 7.49333 102.911 8.072 102.687 8.912C102.481 9.73333 102.369 10.9 102.351 12.412H107.139C107.325 10.3773 107.251 8.912 106.915 8.016C106.579 7.12 105.935 6.672 104.983 6.672ZM118.166 20.42C117.065 20.42 116.075 20.1773 115.198 19.692C114.321 19.188 113.621 18.4227 113.098 17.396C112.594 16.3507 112.342 15.016 112.342 13.392C112.342 11.7493 112.631 10.396 113.21 9.332C113.789 8.24933 114.554 7.44667 115.506 6.924C116.458 6.38267 117.494 6.112 118.614 6.112C119.267 6.112 119.893 6.17733 120.49 6.308C121.087 6.43867 121.619 6.63467 122.086 6.896V3.256C122.086 2.864 122.021 2.57467 121.89 2.388C121.778 2.20133 121.526 2.07067 121.134 1.996L120.602 1.884V1.604L125.698 0.371999L126.006 0.623999L125.894 4.544V18.236C125.894 18.6093 125.959 18.9173 126.09 19.16C126.221 19.384 126.463 19.5427 126.818 19.636L127.07 19.72V20L122.282 20.308L122.03 19.3C121.526 19.636 120.947 19.9067 120.294 20.112C119.659 20.3173 118.95 20.42 118.166 20.42ZM119.79 19.384C120.574 19.384 121.293 19.1507 121.946 18.684V7.568C121.255 7.12 120.546 6.896 119.818 6.896C118.922 6.896 118.157 7.41867 117.522 8.464C116.887 9.49067 116.57 11.1147 116.57 13.336C116.57 15.5573 116.869 17.1253 117.466 18.04C118.063 18.936 118.838 19.384 119.79 19.384ZM132.123 20.42C131.04 20.42 130.125 20.112 129.379 19.496C128.651 18.88 128.287 17.9933 128.287 16.836C128.287 15.9587 128.735 15.156 129.631 14.428C130.527 13.6813 131.936 13.1213 133.859 12.748C134.157 12.692 134.493 12.636 134.867 12.58C135.24 12.5053 135.632 12.4307 136.043 12.356V10.144C136.043 8.87467 135.884 7.988 135.567 7.484C135.268 6.96133 134.792 6.7 134.139 6.7C133.691 6.7 133.336 6.84933 133.075 7.148C132.813 7.428 132.645 7.92267 132.571 8.632L132.515 8.94C132.477 9.74267 132.281 10.3307 131.927 10.704C131.572 11.0773 131.133 11.264 130.611 11.264C130.125 11.264 129.724 11.1147 129.407 10.816C129.089 10.5173 128.931 10.116 128.931 9.612C128.931 8.84667 129.192 8.20267 129.715 7.68C130.256 7.15733 130.965 6.76533 131.843 6.504C132.72 6.24267 133.672 6.112 134.699 6.112C136.36 6.112 137.639 6.52267 138.535 7.344C139.449 8.14667 139.907 9.46267 139.907 11.292V17.48C139.907 18.32 140.299 18.74 141.083 18.74H141.699L141.951 18.964C141.596 19.412 141.204 19.7573 140.775 20C140.364 20.2427 139.776 20.364 139.011 20.364C138.189 20.364 137.536 20.1773 137.051 19.804C136.584 19.412 136.276 18.8987 136.127 18.264C135.567 18.8613 134.988 19.3747 134.391 19.804C133.812 20.2147 133.056 20.42 132.123 20.42ZM133.831 18.712C134.204 18.712 134.549 18.628 134.867 18.46C135.203 18.2733 135.595 17.9933 136.043 17.62V12.916C135.856 12.9533 135.669 12.9907 135.483 13.028C135.296 13.0653 135.081 13.1027 134.839 13.14C133.98 13.364 133.289 13.7467 132.767 14.288C132.263 14.8107 132.011 15.52 132.011 16.416C132.011 17.1813 132.188 17.76 132.543 18.152C132.897 18.5253 133.327 18.712 133.831 18.712ZM146.167 20.42C145.495 20.42 144.925 20.1867 144.459 19.72C143.992 19.2533 143.759 18.6933 143.759 18.04C143.759 17.3867 143.992 16.8173 144.459 16.332C144.925 15.8467 145.495 15.604 146.167 15.604C146.839 15.604 147.408 15.8467 147.875 16.332C148.341 16.8173 148.575 17.3867 148.575 18.04C148.575 18.6933 148.341 19.2533 147.875 19.72C147.408 20.1867 146.839 20.42 146.167 20.42ZM150.921 20V19.72L151.341 19.608C151.715 19.496 151.967 19.328 152.097 19.104C152.247 18.88 152.321 18.5907 152.321 18.236V9.472C152.321 9.06133 152.247 8.76267 152.097 8.576C151.967 8.37067 151.715 8.23067 151.341 8.156L150.921 8.044V7.764L155.737 6.14L156.017 6.42L156.269 8.828V9.052C156.531 8.52933 156.867 8.05333 157.277 7.624C157.707 7.176 158.173 6.812 158.677 6.532C159.2 6.252 159.713 6.112 160.217 6.112C160.927 6.112 161.468 6.308 161.841 6.7C162.215 7.092 162.401 7.58667 162.401 8.184C162.401 8.81867 162.215 9.31333 161.841 9.668C161.487 10.004 161.057 10.172 160.553 10.172C159.769 10.172 159.079 9.78 158.481 8.996L158.425 8.94C158.239 8.67867 158.024 8.53867 157.781 8.52C157.539 8.48267 157.315 8.59467 157.109 8.856C156.923 9.024 156.764 9.22933 156.633 9.472C156.521 9.696 156.409 9.95733 156.297 10.256V18.068C156.297 18.8147 156.624 19.2813 157.277 19.468L158.173 19.72V20H150.921ZM168.349 20.42C167.621 20.42 166.949 20.28 166.333 20C165.735 19.72 165.259 19.272 164.905 18.656C164.569 18.0213 164.41 17.1907 164.429 16.164L164.513 8.968C164.513 8.53867 164.438 8.23067 164.289 8.044C164.139 7.85733 163.906 7.72667 163.589 7.652L163.253 7.54V7.26L168.265 6.28L168.545 6.56L168.405 10.536V17.284C168.405 17.8813 168.573 18.32 168.909 18.6C169.263 18.88 169.702 19.02 170.225 19.02C170.747 19.02 171.214 18.9453 171.625 18.796C172.035 18.6467 172.446 18.4227 172.857 18.124L172.969 8.996C172.969 8.56667 172.903 8.268 172.773 8.1C172.642 7.91333 172.399 7.78267 172.045 7.708L171.765 7.624V7.344L176.665 6.28L176.945 6.56L176.861 10.536V18.124C176.861 18.5347 176.917 18.852 177.029 19.076C177.141 19.3 177.383 19.4867 177.757 19.636L178.037 19.72V20L173.137 20.28L172.885 18.628C172.269 19.132 171.597 19.5613 170.869 19.916C170.159 20.252 169.319 20.42 168.349 20.42ZM179.167 20V19.72L179.559 19.608C180.213 19.4213 180.539 18.964 180.539 18.236V9.472C180.539 9.06133 180.474 8.76267 180.343 8.576C180.213 8.37067 179.961 8.23067 179.587 8.156L179.167 8.044V7.764L183.955 6.14L184.235 6.42L184.459 8.1C185.113 7.52133 185.85 7.04533 186.671 6.672C187.493 6.29867 188.305 6.112 189.107 6.112C190.339 6.112 191.282 6.448 191.935 7.12C192.607 7.792 192.943 8.81867 192.943 10.2V18.264C192.943 18.992 193.298 19.4493 194.007 19.636L194.259 19.72V20H187.651V19.72L188.015 19.608C188.669 19.4027 188.995 18.9453 188.995 18.236V9.304C188.995 8.10933 188.398 7.512 187.203 7.512C186.382 7.512 185.486 7.92267 184.515 8.744V18.264C184.515 18.992 184.842 19.4493 185.495 19.636L185.747 19.72V20H179.167Z" fill="white"/>
</svg>
